<svg width="185" height="59" viewBox="0 0 185 59" fill="none" xmlns="http://www.w3.org/2000/svg">
<path d="M25.3595 21.6451C24.017 21.812 22.4259 21.9436 20.7423 21.9436C19.5784 21.9436 18.3699 21.8794 17.1742 21.7221V44.2115C17.1742 49.8579 16.6098 53.4082 15.4682 54.8527C14.3362 56.2972 12.7706 57.0258 10.7936 57.0258C9.65209 57.0258 8.5807 56.7466 7.60178 56.1784C6.62605 55.607 6.14137 54.9586 6.14137 54.2299C6.14137 53.7131 6.44748 53.1032 7.07246 52.4002C7.43597 51.7101 7.62729 50.9429 7.62729 50.1211C7.62729 48.9816 7.2861 48.0282 6.59097 47.2578C5.89584 46.5034 5.02534 46.1182 3.9667 46.1182C2.90806 46.1182 1.95465 46.5419 1.17662 47.4183C0.398583 48.2786 0 49.3668 0 50.6636C0 52.7822 1.04907 54.705 3.14402 56.4288C5.23898 58.1397 7.72295 59 10.5959 59C13.4689 59 16.3419 58.0209 18.9439 56.0596C21.5458 54.0855 23.2645 51.832 24.0999 49.2897C24.9354 46.7313 25.3754 47.0877 25.3595 38.6614V21.6451Z" fill="#0E1C2C"/>
<path d="M56.0663 25.7603V25.5677C64.4971 23.5775 68.7253 19.382 68.7253 12.9877C68.7253 11.2992 68.3618 9.50484 67.6412 7.61094C66.911 5.73308 65.7216 4.14091 64.0603 2.85049C62.4117 1.56007 60.6803 0.763983 58.8915 0.462242C57.1026 0.163711 54.8897 0 52.2622 0L28.36 0.0288901H9.25032V2.01589H17.1742V10.4999C17.8661 10.4903 18.5676 10.4646 19.2978 10.4197C19.8941 10.3844 20.5095 10.333 21.1632 10.2785C21.5362 10.2464 21.9221 10.2143 22.327 10.1854C23.7364 10.0698 24.7026 10.0666 25.3563 10.1051V2.01589H35.5058V10.1051C36.1595 10.0666 37.1256 10.0666 38.5414 10.1822C38.9496 10.2143 39.3354 10.2464 39.7053 10.2752C40.3589 10.3298 40.9743 10.3812 41.5706 10.4165C42.304 10.4614 43.0119 10.4871 43.7102 10.4967V2.05762H50.7763C53.0148 2.05762 54.7334 2.22133 55.9324 2.55196C57.1441 2.89543 58.1357 3.81349 58.9233 5.30936C59.7014 6.80522 60.0904 9.20631 60.0904 12.4966C60.0904 16.7081 59.5005 19.7929 58.3016 21.7414C57.1122 23.7027 54.3572 24.6754 50.0589 24.6754H43.7134V21.7157C42.5145 21.8762 41.3028 21.9404 40.1357 21.9404C38.4489 21.9404 36.8514 21.8088 35.509 21.6387V51.8481H28.3632V53.8929H51.9593C54.9024 53.8929 57.3513 53.7131 59.2932 53.344C61.2351 52.9876 63.1324 52.0696 64.9914 50.5994C66.8631 49.1164 68.2183 47.3765 69.0665 45.3446C69.9147 43.3287 70.3483 41.4091 70.3483 39.5826C70.3483 32.1611 65.5813 27.5515 56.0663 25.7571V25.7603ZM59.644 47.765C58.63 49.63 57.4055 50.7695 55.9706 51.2093C54.5357 51.633 52.6162 51.8545 50.2023 51.8545H43.7134V26.7394H49.9887C54.3795 26.7394 57.3481 27.712 58.8659 29.6605C60.3965 31.6218 61.1618 34.7227 61.1618 38.9888C61.1618 42.982 60.6548 45.9032 59.644 47.7682V47.765Z" fill="#0E1C2C"/>
<path d="M28.3377 8.11812C28.3377 6.91115 29.3038 5.92568 30.5028 5.92568C31.7017 5.92568 32.6806 6.91115 32.6806 8.11812C32.6806 9.32508 31.7017 10.3106 30.5028 10.3106C29.3038 10.3106 28.3377 9.32508 28.3377 8.11812ZM31.2649 12.381H29.6323L29.7917 27.1214C28.7331 26.6142 27.3906 25.9401 26.7688 25.6576C26.6445 25.5998 26.5106 25.5292 26.3703 25.449V27.1888C26.8358 27.4167 27.4735 27.712 28.1145 28.0009C28.2165 27.9431 28.3313 27.8693 28.4461 27.8115C28.8957 27.5644 29.3708 27.3589 29.8619 27.1567C29.8619 27.1567 29.8587 27.1567 29.8555 27.1535C30.2572 26.9641 30.6877 26.7908 31.1054 26.5885L31.2649 12.381ZM26.3671 23.7412L26.7657 23.6835C26.9825 23.6546 27.1993 23.6257 27.4448 23.5807H27.5022C27.7478 23.5358 27.9072 23.3047 27.8626 23.0575C27.8466 22.9708 27.8052 22.8842 27.7318 22.8232C27.5309 22.6049 27.2695 22.4444 26.9952 22.3288C26.7912 22.2518 26.5807 22.194 26.3671 22.1619V22.5279C26.3671 22.5279 26.383 22.5279 26.3894 22.5311C26.383 22.5407 26.3735 22.5471 26.3671 22.5567V23.7412ZM31.8803 17.241C31.9345 17.4657 31.9855 17.7096 32.0397 17.9729C32.2502 18.8717 32.1991 19.5104 31.9345 19.9791C32.4096 20.0529 32.8592 20.2038 33.0441 20.2231C33.4395 20.2969 33.8094 20.3547 34.1793 20.3932C33.6245 19.5875 33.3088 18.801 33.0983 18.1077C33.1781 17.9022 33.3088 17.6775 33.4937 17.4336C34.0231 19.1959 34.259 20.4702 36.794 20.711C36.4783 20.4863 36.1882 20.2231 35.8948 19.9631C34.7852 18.9326 34.2048 17.883 33.9146 16.9649C34.0454 16.8333 34.2048 16.7017 34.3898 16.5893C34.7054 17.4689 35.34 18.5186 36.5294 19.5875C38.1651 21.0288 38.4043 20.955 40.9903 20.9004C40.6459 20.7302 40.3047 20.5633 39.9604 20.3932C37.4509 19.1188 36.0798 17.4689 35.34 16.0661C35.4994 15.9923 35.6844 15.9152 35.8693 15.8607C35.8948 15.8607 35.9235 15.8414 35.949 15.8414C36.7143 17.1543 38.0886 18.7079 40.4642 19.9245C42.6038 21.0127 42.8397 20.9742 45.5086 20.3547C45.0335 20.2616 44.5329 20.13 44.0578 19.9984C40.1485 18.9294 38.0376 17.0195 36.9279 15.5011C37.1671 15.4434 37.3775 15.3695 37.6135 15.2957C40.6778 19.1188 45.3237 21.1797 50.7636 18.4062H50.6838C50.3682 18.3869 50.078 18.3677 49.7591 18.3484C44.2938 17.9375 41.1242 16.2683 39.3545 14.8431C39.6192 14.8046 39.8551 14.75 40.1453 14.7115C43.8155 17.2955 50.6806 19.5072 54.5102 15.8542C53.7705 15.912 53.0052 15.9281 52.1857 15.912C51.5256 15.912 50.8656 15.8735 50.2597 15.8382C47.5653 15.6328 44.4787 14.7885 42.7887 14.246C43.2893 14.1337 43.3945 14.1722 44.0036 14.0598C48.4645 15.4658 54.8833 16.8333 56.8093 12.7309C56.4139 12.8047 55.9898 12.8818 55.5689 12.9363C53.1391 13.2927 49.6794 13.1996 47.594 13.0872C48.4645 12.8047 50.5499 12.6924 51.8987 12.6763H52.0582C53.1423 12.6186 54.2775 12.5255 55.4126 12.3778C55.993 12.2847 56.5478 12.1724 57.1026 12.0408C57.3673 11.3281 58.0784 10.2239 58.1868 9.60435C55.9419 10.2785 53.171 11.2158 47.5972 11.4597C45.6426 11.5528 42.8716 11.6299 39.042 11.2543C31.0672 10.4486 33.9465 13.0904 33.4969 14.7596C33.076 16.278 32.467 16.8782 31.8867 17.2506L31.8803 17.241ZM27.7765 18.1045C27.566 18.7978 27.2248 19.5843 26.6732 20.39C27.0399 20.3515 27.4353 20.2969 27.802 20.2199C28.0124 20.2006 28.4588 20.0497 28.9308 19.9759C28.6693 19.5072 28.6151 18.8717 28.8255 17.9696C28.8766 17.7064 28.9308 17.4625 28.9563 17.2378C28.4046 16.8622 27.802 16.2619 27.3811 14.7468C26.9347 13.0808 29.7949 10.439 21.8679 11.2415C18.0606 11.617 15.3056 11.54 13.3637 11.4469C7.82498 11.2029 5.06998 10.2656 2.83791 9.59151C2.91763 10.211 3.65102 11.3153 3.91249 12.0279C4.46413 12.1595 5.01577 12.2719 5.59292 12.365C6.72171 12.5158 7.82499 12.6089 8.92507 12.6635H9.05581C10.4206 12.6828 12.4932 12.7951 13.3605 13.0744C11.2879 13.1867 7.84731 13.2798 5.43349 12.9235C5.01258 12.8657 4.59487 12.7919 4.19947 12.7181C6.11586 16.8205 12.4932 15.453 16.9031 14.047C17.5058 14.1594 17.611 14.1208 18.1371 14.2332C16.4567 14.7757 13.3605 15.6199 10.7107 15.8254C10.0794 15.8639 9.4512 15.8992 8.79434 15.8992C7.98123 15.9184 7.21914 15.8992 6.48575 15.8414C10.293 19.4944 17.0881 17.2827 20.7646 14.6986C21.0261 14.7372 21.2907 14.7917 21.5522 14.8303C19.7952 16.2555 16.6193 17.9215 11.1858 18.3356C10.8957 18.3548 10.6087 18.3741 10.293 18.3934H10.2133C15.5926 21.1668 20.2385 19.106 23.2581 15.2829C23.4941 15.3567 23.73 15.4337 23.9405 15.4883C22.8372 17.0066 20.7646 18.9166 16.8808 19.9855C16.3834 20.1171 15.9083 20.2487 15.4363 20.3418C18.0606 20.9614 18.2966 20.9967 20.4489 19.9117C22.8117 18.6951 24.151 17.1382 24.9099 15.8286C24.9354 15.8286 24.9609 15.8478 24.9896 15.8478C25.2 15.9056 25.3563 15.9794 25.5412 16.0533C24.8078 17.4592 23.4431 19.106 20.9208 20.3804C20.6052 20.5505 20.264 20.7174 19.9228 20.8875C22.496 20.9453 22.732 21.0192 24.3327 19.5746C25.5412 18.5057 26.1694 17.456 26.4851 16.5765C26.6413 16.6888 26.8007 16.8205 26.957 16.9521C26.6668 17.8701 26.0897 18.9198 24.9896 19.9502C24.6994 20.2134 24.3869 20.4734 24.0967 20.6982C26.5903 20.4542 26.8518 19.1798 27.3779 17.4207C27.5628 17.6647 27.6936 17.8894 27.7701 18.0948L27.7765 18.1045ZM34.5046 22.1651C34.2909 22.1972 34.0868 22.255 33.8955 22.3288C33.6213 22.4444 33.3598 22.6049 33.143 22.8232C33.0856 22.881 33.041 22.9676 33.0282 23.0575C32.9836 23.3047 33.143 23.539 33.3885 23.5807H33.4332C33.6787 23.6257 33.9115 23.6546 34.1123 23.6835L34.5046 23.738V22.1651ZM30.3242 50.0152C30.3689 50.073 30.4103 50.1179 30.439 50.1757C30.4836 50.1179 30.5251 50.073 30.5697 50.0152L30.6845 44.5838C30.5538 44.6994 30.3816 44.831 30.2062 44.9915L30.321 50.0152H30.3242ZM30.1074 50.8145C30.1361 50.8434 30.1807 50.8722 30.2094 50.8883C30.1807 50.8594 30.152 50.8305 30.1233 50.7856C29.9511 50.5962 29.7917 50.394 29.6323 50.1885C29.3421 49.8097 29.0838 49.4021 28.8957 48.9816C28.7076 48.5739 28.5928 48.1213 28.5481 47.6719C28.5322 47.4536 28.5194 47.2064 28.5481 47.001C28.5641 46.7827 28.6055 46.5644 28.6629 46.359C28.7937 45.9353 29.0232 45.5597 29.3134 45.2226C29.5462 44.9466 29.7917 44.6994 30.0659 44.4651C30.1807 44.3624 30.3115 44.2628 30.4422 44.1601C30.7037 43.9579 30.9619 43.7524 31.2362 43.5631C31.3095 43.5053 31.3956 43.4314 31.4817 43.3737C31.5263 43.3448 31.5837 43.2998 31.6252 43.2581C31.9727 43.0109 32.3331 42.7349 32.6679 42.4428C33.0569 42.0929 33.4491 41.7141 33.768 41.2647C34.0868 40.7992 34.3451 40.26 34.4472 39.6789C34.4759 39.5345 34.4918 39.3868 34.5046 39.2424C34.5046 39.236 34.5046 39.2295 34.5046 39.2231V38.6357C34.479 38.3917 34.428 38.1413 34.3451 37.8878C34.157 37.3067 33.7807 36.7964 33.3758 36.4015C33.0569 36.0966 32.7253 35.8334 32.3777 35.6022C32.3618 35.6022 32.3618 35.6183 32.349 35.6183C31.8994 35.8943 31.4371 36.1287 30.9619 36.3758C31.1054 36.4497 31.2521 36.5203 31.3828 36.6102C31.7878 36.8445 32.1641 37.0917 32.4829 37.3806C32.7859 37.6566 33.0314 37.9776 33.1621 38.3275C33.2195 38.5009 33.2642 38.6774 33.2769 38.8668C33.2769 38.9695 33.2929 39.069 33.2769 39.1718C33.2769 39.2745 33.2769 39.374 33.2482 39.4639C33.2036 39.8715 33.0473 40.2503 32.8146 40.6131C32.3522 41.3257 31.6156 41.9516 30.8471 42.5647L30.8312 42.5808C30.7005 42.6835 30.5697 42.783 30.4422 42.9018C30.1967 43.104 29.9511 43.3095 29.7056 43.5277L29.661 43.5727C29.5462 43.6754 29.4154 43.791 29.3006 43.9065C29.0551 44.1409 28.8383 44.388 28.6215 44.6641C28.3026 45.1007 28.0284 45.595 27.8976 46.1343C27.4353 47.8805 28.7235 49.8451 30.1106 50.8209L30.1074 50.8145ZM27.4608 34.2476C27.7924 34.5526 28.1559 34.7997 28.5035 35.018C28.5035 35.018 28.513 35.0127 28.5322 35.002C28.9945 34.7098 29.4728 34.4498 29.9479 34.1866C29.8172 34.0999 29.6737 34.0261 29.543 33.9394C29.154 33.6923 28.7905 33.4291 28.4875 33.1402C28.1974 32.848 27.9805 32.5431 27.8817 32.2221C27.7669 31.9011 27.751 31.5095 27.837 31.2174C27.8657 31.0729 27.9391 30.9252 28.0252 30.7808C28.1272 30.6492 28.242 30.5047 28.3855 30.3571C28.6597 30.0939 29.036 29.8467 29.4282 29.6156C29.5717 29.5289 29.7311 29.4422 29.8906 29.3523C30.0787 29.2496 30.2668 29.1629 30.439 29.0763C30.5251 29.0313 30.5984 29.0024 30.6718 28.9607C31.0034 28.8002 31.5965 28.537 32.2342 28.2481C32.4064 28.1743 32.5945 28.0876 32.7827 28.0009C33.4045 27.7152 34.0326 27.4231 34.5046 27.1952V25.4586C34.3738 25.5356 34.2463 25.5998 34.1283 25.6576C33.4906 25.9497 32.1035 26.6463 31.0321 27.1567C30.8153 27.2594 30.6271 27.3461 30.439 27.4328C30.3083 27.4905 30.1775 27.5483 30.0627 27.5933C29.6004 27.7826 29.138 28.0009 28.6597 28.2481C28.4875 28.3508 28.3122 28.4375 28.14 28.553C27.8498 28.7424 27.5756 28.9447 27.3014 29.195C27.0845 29.3973 26.8677 29.6316 26.6955 29.9077C26.568 30.1131 26.4532 30.3346 26.3703 30.5689V32.5945C26.3862 32.6458 26.4022 32.6972 26.4213 32.7453C26.6381 33.3552 27.0431 33.8528 27.464 34.2444L27.4608 34.2476ZM28.2133 42.446C28.5609 42.7381 28.9084 43.0141 29.256 43.2613C29.3006 43.2324 29.3421 43.2035 29.3708 43.1586C29.6036 42.9564 29.8332 42.767 30.0659 42.5776C30.05 42.5776 30.05 42.5615 30.0372 42.5615C29.2847 41.9516 28.5481 41.3257 28.0858 40.6098C27.853 40.2471 27.6968 39.8683 27.6362 39.4607C27.6202 39.374 27.6202 39.2713 27.6075 39.1686C27.6075 39.0658 27.6075 38.9663 27.6234 38.8636C27.6394 38.6742 27.6808 38.5009 27.7382 38.3243C27.8689 37.9744 28.1145 37.6534 28.4174 37.3774C28.7363 37.0853 29.1125 36.8381 29.5015 36.607C29.645 36.5203 29.7917 36.4465 29.9224 36.3726C30.0946 36.2699 30.27 36.1832 30.4422 36.0966C30.9205 35.8334 31.4243 35.5862 31.9185 35.3101C31.9759 35.2652 32.0493 35.2363 32.1067 35.1946C32.2087 35.1368 32.2948 35.0918 32.3968 35.0212C32.7444 34.8029 33.1047 34.5558 33.4395 34.2508C33.8604 33.8592 34.2495 33.3616 34.4822 32.7517C34.495 32.7229 34.5014 32.6908 34.5109 32.6619V30.5368C34.4312 30.3153 34.326 30.1067 34.2048 29.9141C34.0167 29.638 33.8158 29.4037 33.599 29.2015C33.3247 28.9543 33.0346 28.7489 32.7444 28.5595C32.1673 28.8227 31.5742 29.0827 30.9938 29.3588H31.0002C30.71 29.5225 30.2796 29.7696 29.865 30.0297L29.9671 34.1802C30.2987 33.978 30.6176 33.7565 30.9492 33.5382L31.0512 29.3909C31.1915 29.4679 31.3318 29.5449 31.4721 29.622C31.8611 29.8563 32.2247 30.1035 32.5148 30.3635C32.6583 30.5079 32.7763 30.6556 32.8624 30.7872C32.9644 30.9317 33.0218 31.0793 33.0633 31.2238C33.1494 31.5159 33.1207 31.9075 33.0186 32.2285C32.9166 32.5495 32.6998 32.8545 32.3968 33.1466C32.1067 33.4387 31.7464 33.6987 31.3541 33.9459C31.2107 34.0325 31.0799 34.1064 30.9332 34.193C30.7738 34.2797 30.6144 34.3824 30.4422 34.4691C29.9639 34.7452 29.4728 35.0084 28.9818 35.3133C28.9084 35.3422 28.851 35.3872 28.7936 35.4289C28.7076 35.4867 28.6055 35.5445 28.5194 35.6022C28.1719 35.8366 27.8243 36.0966 27.5086 36.4015C27.1196 36.7931 26.7433 37.3035 26.5552 37.8878C26.4532 38.1927 26.3958 38.4977 26.383 38.7898C26.383 38.9503 26.383 39.0947 26.399 39.2424C26.4149 39.3868 26.4277 39.5345 26.4564 39.6789C26.5584 40.26 26.8039 40.7992 27.1355 41.2647C27.4544 41.7173 27.8307 42.0961 28.2197 42.4428L28.2133 42.446ZM30.1488 42.5038C30.2796 42.3721 30.5251 42.1121 30.5378 42.125C30.5378 42.125 30.6239 42.0383 30.7547 41.9067L30.8695 36.4465C30.6239 36.5781 30.3051 36.7675 30.0149 36.928L30.1456 42.5038H30.1488ZM28.0316 11.3923C28.0316 11.5785 28.191 11.7358 28.3727 11.7358H32.6424C32.8273 11.7358 32.9836 11.5753 32.9836 11.3923C32.9836 11.1965 32.8241 11.0489 32.6424 11.0489H28.3727C28.1878 11.0489 28.0316 11.1965 28.0316 11.3923ZM32.9995 46.1279C32.8688 45.5886 32.5945 45.0942 32.2757 44.6577C32.0588 44.3816 31.8261 44.1344 31.5965 43.9001C31.335 44.0895 31.0767 44.2789 30.8312 44.4683C31.1054 44.7026 31.351 44.9498 31.5837 45.2258C31.858 45.5597 32.0907 45.9385 32.2215 46.3622C32.2948 46.5644 32.3363 46.7859 32.3522 47.0042C32.3681 47.2064 32.3681 47.4568 32.3522 47.6751C32.3076 48.1277 32.1928 48.5771 32.0046 48.9848C31.8165 49.4085 31.555 49.8162 31.2521 50.1917C31.1086 50.394 30.9332 50.5994 30.7611 50.7888C30.7324 50.8337 30.7037 50.8626 30.675 50.8915C30.7196 50.8755 30.7611 50.8466 30.7898 50.8177C32.1768 49.8418 33.4491 47.8773 33.0027 46.1311L32.9995 46.1279Z" fill="#0E1C2C"/>
<path d="M85.4339 0H83.6961V58.9968H85.4339V0Z" fill="#0E1C2C"/>
<path d="M108.89 17.8027L107.522 14.2813H103.112L101.757 17.8027H100.462L104.811 6.68324H105.886L110.213 17.8027H108.89ZM107.12 13.1193L105.841 9.68781C105.676 9.25446 105.507 8.7216 105.331 8.08923C105.22 8.57394 105.063 9.1068 104.856 9.68781L103.561 13.1193H107.12Z" fill="#0E1C2C"/>
<path d="M116.858 15.5365C116.858 16.3101 116.571 16.9039 116 17.3244C115.43 17.7449 114.626 17.9536 113.593 17.9536C112.499 17.9536 111.648 17.7803 111.036 17.4304V16.2651C111.431 16.4674 111.858 16.6246 112.311 16.7434C112.764 16.859 113.204 16.9168 113.625 16.9168C114.275 16.9168 114.779 16.8108 115.13 16.6022C115.481 16.3935 115.656 16.0725 115.656 15.6424C115.656 15.3182 115.516 15.0421 115.238 14.8142C114.961 14.5831 114.416 14.3134 113.609 13.9989C112.84 13.71 112.295 13.4596 111.973 13.2445C111.651 13.0294 111.409 12.7855 111.249 12.5126C111.09 12.2398 111.013 11.9156 111.013 11.5368C111.013 10.8595 111.288 10.3266 111.833 9.93498C112.378 9.54336 113.131 9.34755 114.084 9.34755C114.971 9.34755 115.841 9.53052 116.689 9.89325L116.246 10.9172C115.417 10.5738 114.668 10.4036 113.995 10.4036C113.402 10.4036 112.955 10.4967 112.656 10.6829C112.356 10.8691 112.203 11.1259 112.203 11.4565C112.203 11.678 112.26 11.8674 112.372 12.0247C112.483 12.182 112.665 12.3297 112.917 12.4709C113.169 12.6121 113.65 12.8176 114.361 13.084C115.34 13.4435 116 13.803 116.345 14.1658C116.689 14.5285 116.861 14.9875 116.861 15.5365H116.858Z" fill="#0E1C2C"/>
<path d="M124.208 15.5365C124.208 16.3101 123.921 16.9039 123.35 17.3244C122.78 17.7449 121.976 17.9536 120.943 17.9536C119.849 17.9536 118.998 17.7803 118.386 17.4304V16.2651C118.781 16.4674 119.208 16.6246 119.661 16.7434C120.114 16.859 120.554 16.9168 120.975 16.9168C121.625 16.9168 122.129 16.8108 122.48 16.6022C122.831 16.3935 123.006 16.0725 123.006 15.6424C123.006 15.3182 122.866 15.0421 122.588 14.8142C122.311 14.5831 121.766 14.3134 120.959 13.9989C120.19 13.71 119.645 13.4596 119.323 13.2445C119.001 13.0294 118.759 12.7855 118.599 12.5126C118.44 12.2398 118.363 11.9156 118.363 11.5368C118.363 10.8595 118.637 10.3266 119.183 9.93498C119.728 9.54336 120.481 9.34755 121.434 9.34755C122.32 9.34755 123.191 9.53052 124.039 9.89325L123.596 10.9172C122.767 10.5738 122.017 10.4036 121.345 10.4036C120.752 10.4036 120.305 10.4967 120.005 10.6829C119.706 10.8691 119.553 11.1259 119.553 11.4565C119.553 11.678 119.61 11.8674 119.722 12.0247C119.833 12.182 120.015 12.3297 120.267 12.4709C120.519 12.6121 121 12.8176 121.711 13.084C122.69 13.4435 123.35 13.803 123.695 14.1658C124.039 14.5285 124.211 14.9875 124.211 15.5365H124.208Z" fill="#0E1C2C"/>
<path d="M129.724 17.9536C128.506 17.9536 127.543 17.5812 126.839 16.8333C126.134 16.0854 125.78 15.0485 125.78 13.7196C125.78 12.3906 126.109 11.3185 126.762 10.5288C127.416 9.74238 128.296 9.34755 129.399 9.34755C130.432 9.34755 131.252 9.69102 131.851 10.3748C132.454 11.0585 132.754 11.9605 132.754 13.084V13.8801H127.072C127.097 14.8559 127.343 15.5942 127.805 16.0982C128.267 16.6022 128.921 16.8558 129.766 16.8558C130.652 16.8558 131.532 16.6696 132.4 16.294V17.4143C131.96 17.6069 131.542 17.7449 131.147 17.8284C130.751 17.9119 130.276 17.9536 129.721 17.9536H129.724ZM129.386 10.4004C128.723 10.4004 128.197 10.6187 127.802 11.0521C127.406 11.4854 127.177 12.0857 127.107 12.8561H131.418C131.418 12.0632 131.242 11.4565 130.892 11.0328C130.541 10.6123 130.04 10.4004 129.386 10.4004Z" fill="#0E1C2C"/>
<path d="M140.206 15.5365C140.206 16.3101 139.919 16.9039 139.348 17.3244C138.777 17.7449 137.974 17.9536 136.94 17.9536C135.847 17.9536 134.995 17.7803 134.383 17.4304V16.2651C134.779 16.4674 135.206 16.6246 135.659 16.7434C136.111 16.859 136.551 16.9168 136.972 16.9168C137.623 16.9168 138.127 16.8108 138.477 16.6022C138.828 16.3935 139.003 16.0725 139.003 15.6424C139.003 15.3182 138.863 15.0421 138.586 14.8142C138.308 14.5831 137.763 14.3134 136.956 13.9989C136.188 13.71 135.643 13.4596 135.321 13.2445C134.999 13.0294 134.756 12.7855 134.597 12.5126C134.437 12.2398 134.361 11.9156 134.361 11.5368C134.361 10.8595 134.635 10.3266 135.18 9.93498C135.726 9.54336 136.478 9.34755 137.431 9.34755C138.318 9.34755 139.188 9.53052 140.037 9.89325L139.593 10.9172C138.764 10.5738 138.015 10.4036 137.342 10.4036C136.749 10.4036 136.303 10.4967 136.003 10.6829C135.703 10.8691 135.55 11.1259 135.55 11.4565C135.55 11.678 135.608 11.8674 135.719 12.0247C135.831 12.182 136.013 12.3297 136.264 12.4709C136.516 12.6121 136.998 12.8176 137.709 13.084C138.688 13.4435 139.348 13.803 139.692 14.1658C140.037 14.5285 140.209 14.9875 140.209 15.5365H140.206Z" fill="#0E1C2C"/>
<path d="M147.559 15.5365C147.559 16.3101 147.272 16.9039 146.701 17.3244C146.13 17.7449 145.327 17.9536 144.293 17.9536C143.2 17.9536 142.348 17.7803 141.736 17.4304V16.2651C142.132 16.4674 142.559 16.6246 143.012 16.7434C143.464 16.859 143.904 16.9168 144.325 16.9168C144.976 16.9168 145.48 16.8108 145.83 16.6022C146.181 16.3935 146.357 16.0725 146.357 15.6424C146.357 15.3182 146.216 15.0421 145.939 14.8142C145.661 14.5831 145.116 14.3134 144.309 13.9989C143.541 13.71 142.996 13.4596 142.674 13.2445C142.352 13.0294 142.109 12.7855 141.95 12.5126C141.79 12.2398 141.714 11.9156 141.714 11.5368C141.714 10.8595 141.988 10.3266 142.533 9.93498C143.079 9.54336 143.831 9.34755 144.785 9.34755C145.671 9.34755 146.541 9.53052 147.39 9.89325L146.946 10.9172C146.117 10.5738 145.368 10.4036 144.695 10.4036C144.102 10.4036 143.656 10.4967 143.356 10.6829C143.056 10.8691 142.903 11.1259 142.903 11.4565C142.903 11.678 142.961 11.8674 143.072 12.0247C143.184 12.182 143.366 12.3297 143.617 12.4709C143.869 12.6121 144.351 12.8176 145.062 13.084C146.041 13.4435 146.701 13.803 147.045 14.1658C147.39 14.5285 147.562 14.9875 147.562 15.5365H147.559Z" fill="#0E1C2C"/>
<path d="M156.707 13.6425C156.707 14.9972 156.369 16.0533 155.69 16.814C155.014 17.5748 154.076 17.9536 152.884 17.9536C152.147 17.9536 151.49 17.7803 150.92 17.4304C150.349 17.0837 149.906 16.5829 149.596 15.9313C149.284 15.2797 149.131 14.5157 149.131 13.6425C149.131 12.2879 149.465 11.235 150.138 10.4807C150.811 9.72633 151.742 9.34755 152.938 9.34755C154.134 9.34755 155.007 9.73275 155.69 10.5064C156.369 11.28 156.71 12.3232 156.71 13.6425H156.707ZM150.425 13.6425C150.425 14.7018 150.636 15.5108 151.057 16.0661C151.478 16.6214 152.096 16.9007 152.916 16.9007C153.735 16.9007 154.354 16.6246 154.778 16.0725C155.202 15.5204 155.412 14.7115 155.412 13.6458C155.412 12.58 155.199 11.7872 154.778 11.2415C154.354 10.6925 153.729 10.4197 152.9 10.4197C152.071 10.4197 151.465 10.6893 151.047 11.2286C150.629 11.7679 150.422 12.5736 150.422 13.6458L150.425 13.6425Z" fill="#0E1C2C"/>
<path d="M162.66 9.34755C163.027 9.34755 163.355 9.37644 163.645 9.43743L163.473 10.6027C163.132 10.5256 162.832 10.4903 162.571 10.4903C161.904 10.4903 161.334 10.7632 160.859 11.3089C160.383 11.8546 160.148 12.5351 160.148 13.3472V17.8027H158.898V9.50163H159.928L160.071 11.0392H160.132C160.438 10.4999 160.808 10.0826 161.238 9.79053C161.669 9.49842 162.144 9.35076 162.66 9.35076V9.34755Z" fill="#0E1C2C"/>
<path d="M165.084 7.2482C165.084 6.9593 165.154 6.75065 165.294 6.61583C165.434 6.48101 165.61 6.41681 165.82 6.41681C166.031 6.41681 166.193 6.48422 166.34 6.62225C166.487 6.75707 166.557 6.96893 166.557 7.25141C166.557 7.5339 166.483 7.74576 166.34 7.88379C166.193 8.02182 166.021 8.09244 165.82 8.09244C165.61 8.09244 165.434 8.02182 165.294 7.88379C165.154 7.74576 165.084 7.5339 165.084 7.25141V7.2482ZM166.439 17.8027H165.189V9.50163H166.439V17.8027Z" fill="#0E1C2C"/>
<path d="M174.159 17.8027L173.91 16.6214H173.849C173.438 17.1415 173.027 17.4946 172.618 17.6775C172.21 17.8605 171.7 17.9536 171.088 17.9536C170.272 17.9536 169.631 17.7417 169.165 17.318C168.7 16.8943 168.47 16.2908 168.47 15.5076C168.47 13.8319 169.803 12.9524 172.465 12.8721L173.865 12.8272V12.3136C173.865 11.662 173.725 11.1805 173.447 10.8691C173.17 10.5577 172.724 10.4036 172.111 10.4036C171.423 10.4036 170.648 10.6155 169.777 11.0392L169.395 10.0762C169.8 9.85473 170.246 9.68139 170.731 9.55299C171.215 9.4278 171.7 9.3636 172.188 9.3636C173.17 9.3636 173.9 9.58188 174.375 10.0217C174.85 10.4614 175.086 11.1644 175.086 12.1338V17.7995H174.162L174.159 17.8027ZM171.337 16.9168C172.115 16.9168 172.724 16.7017 173.17 16.2715C173.613 15.8414 173.836 15.2411 173.836 14.4675V13.7164L172.587 13.7709C171.592 13.8063 170.877 13.9603 170.437 14.2364C169.997 14.5125 169.781 14.9394 169.781 15.5204C169.781 15.9762 169.918 16.3197 170.192 16.5572C170.466 16.7948 170.849 16.9135 171.34 16.9135L171.337 16.9168Z" fill="#0E1C2C"/>
<path d="M106.683 23.6546C105.475 23.6546 104.521 24.059 103.82 24.8712C103.121 25.6833 102.771 26.7908 102.771 28.1999C102.771 29.6091 103.109 30.768 103.781 31.5608C104.457 32.3505 105.417 32.7453 106.667 32.7453C107.436 32.7453 108.309 32.6073 109.295 32.328V33.4579C108.533 33.7468 107.592 33.8881 106.473 33.8881C104.853 33.8881 103.603 33.3937 102.723 32.4051C101.843 31.4164 101.403 30.0104 101.403 28.1871C101.403 27.0476 101.613 26.046 102.037 25.189C102.461 24.3319 103.074 23.6674 103.874 23.2052C104.674 22.7429 105.615 22.5086 106.699 22.5086C107.853 22.5086 108.861 22.7205 109.725 23.1442L109.183 24.2516C108.351 23.8568 107.519 23.661 106.686 23.661L106.683 23.6546Z" fill="#0E1C2C"/>
<path d="M118.625 29.5802C118.625 30.9349 118.287 31.991 117.608 32.7517C116.932 33.5125 115.994 33.8913 114.802 33.8913C114.065 33.8913 113.408 33.718 112.837 33.3681C112.267 33.0182 111.823 32.5206 111.514 31.869C111.205 31.2174 111.048 30.4566 111.048 29.5802C111.048 28.2256 111.383 27.1727 112.056 26.4184C112.729 25.664 113.66 25.2853 114.856 25.2853C116.051 25.2853 116.925 25.6705 117.608 26.4441C118.287 27.2177 118.628 28.2609 118.628 29.5802H118.625ZM112.343 29.5802C112.343 30.6396 112.554 31.4485 112.974 32.0038C113.395 32.5591 114.014 32.8384 114.833 32.8384C115.653 32.8384 116.271 32.5624 116.696 32.0102C117.12 31.4581 117.33 30.6492 117.33 29.5835C117.33 28.5177 117.116 27.7249 116.696 27.1792C116.271 26.6302 115.647 26.3574 114.817 26.3574C113.988 26.3574 113.383 26.627 112.965 27.1695C112.547 27.7088 112.34 28.5145 112.34 29.5867L112.343 29.5802Z" fill="#0E1C2C"/>
<path d="M126.459 33.7372V28.3669C126.459 27.6896 126.306 27.1856 126 26.8517C125.694 26.5179 125.216 26.351 124.562 26.351C123.698 26.351 123.067 26.5853 122.665 27.0572C122.263 27.5258 122.062 28.3027 122.062 29.3812V33.7372H120.812V25.4361H121.829L122.033 26.5725H122.094C122.349 26.1648 122.709 25.847 123.169 25.6223C123.631 25.3976 124.144 25.2853 124.712 25.2853C125.707 25.2853 126.453 25.526 126.954 26.0075C127.454 26.489 127.706 27.2626 127.706 28.3219V33.7372H126.456H126.459Z" fill="#0E1C2C"/>
<path d="M132.939 32.8512C133.159 32.8512 133.372 32.8352 133.58 32.8031C133.787 32.771 133.949 32.7357 134.067 32.7004V33.6634C133.934 33.7308 133.733 33.7822 133.468 33.8271C133.203 33.8688 132.967 33.8913 132.757 33.8913C131.163 33.8913 130.365 33.0471 130.365 31.3522V26.412H129.182V25.8053L130.365 25.282L130.892 23.5101H131.615V25.4329H134.007V26.4088H131.615V31.2944C131.615 31.7952 131.733 32.1772 131.969 32.4468C132.205 32.7132 132.527 32.848 132.939 32.848V32.8512Z" fill="#0E1C2C"/>
<path d="M140.786 33.7372L140.537 32.5559H140.477C140.065 33.076 139.654 33.4291 139.246 33.612C138.838 33.795 138.327 33.8881 137.715 33.8881C136.899 33.8881 136.258 33.6762 135.793 33.2525C135.327 32.8288 135.097 32.2253 135.097 31.4421C135.097 29.7664 136.43 28.8869 139.093 28.8066L140.493 28.7617V28.2449C140.493 27.5933 140.352 27.1118 140.075 26.8004C139.797 26.489 139.351 26.3349 138.739 26.3349C138.05 26.3349 137.275 26.5468 136.405 26.9705L136.022 26.0075C136.427 25.786 136.873 25.6095 137.358 25.4843C137.843 25.3591 138.327 25.2949 138.815 25.2949C139.797 25.2949 140.528 25.5132 141.003 25.9529C141.478 26.3927 141.714 27.0957 141.714 28.0651V33.7308H140.789L140.786 33.7372ZM137.964 32.8512C138.742 32.8512 139.351 32.6362 139.797 32.206C140.241 31.7759 140.464 31.1756 140.464 30.402V29.6509L139.214 29.7054C138.219 29.7408 137.505 29.8948 137.065 30.1709C136.625 30.447 136.408 30.8739 136.408 31.4549C136.408 31.9107 136.545 32.2542 136.819 32.4917C137.093 32.7293 137.476 32.848 137.967 32.848L137.964 32.8512ZM137.671 24.1489C137.913 23.8375 138.171 23.4588 138.449 23.0126C138.726 22.5696 138.946 22.1812 139.106 21.8538H140.627V22.0143C140.407 22.3417 140.078 22.7461 139.641 23.2276C139.204 23.7091 138.825 24.0783 138.506 24.3415H137.671V24.1489Z" fill="#0E1C2C"/>
<path d="M148.123 25.2981C149.207 25.2981 150.049 25.6705 150.648 26.4152C151.248 27.1599 151.548 28.2128 151.548 29.577C151.548 30.9413 151.245 32.0006 150.642 32.755C150.036 33.5093 149.198 33.8881 148.126 33.8881C147.591 33.8881 147.1 33.7886 146.656 33.5896C146.213 33.3905 145.84 33.0824 145.54 32.6683H145.451L145.186 33.7372H144.29V21.9501H145.54V24.8134C145.54 25.4554 145.521 26.03 145.48 26.5404H145.54C146.121 25.7122 146.985 25.2981 148.129 25.2981H148.123ZM147.941 26.351C147.09 26.351 146.475 26.5982 146.098 27.0893C145.722 27.5804 145.534 28.4118 145.534 29.577C145.534 30.7423 145.725 31.5769 146.114 32.0808C146.5 32.5848 147.119 32.8352 147.973 32.8352C148.742 32.8352 149.312 32.5527 149.689 31.991C150.065 31.4292 150.253 30.6171 150.253 29.5642C150.253 28.5113 150.065 27.6767 149.689 27.1471C149.312 26.6174 148.732 26.351 147.945 26.351H147.941Z" fill="#0E1C2C"/>
<path d="M153.624 23.1859C153.624 22.897 153.694 22.6884 153.834 22.5535C153.974 22.4187 154.15 22.3513 154.36 22.3513C154.571 22.3513 154.733 22.4187 154.88 22.5567C155.027 22.6916 155.097 22.9034 155.097 23.1859C155.097 23.4684 155.023 23.6802 154.88 23.8183C154.733 23.9563 154.561 24.0269 154.36 24.0269C154.15 24.0269 153.974 23.9563 153.834 23.8183C153.694 23.6802 153.624 23.4684 153.624 23.1859ZM154.979 33.7372H153.729V25.4361H154.979V33.7372Z" fill="#0E1C2C"/>
<path d="M158.875 33.7372H157.625V21.9501H158.875V33.7372Z" fill="#0E1C2C"/>
<path d="M108.105 49.6717H101.974V38.5972H108.105V39.7399H103.252V43.3063H107.812V44.4426H103.252V48.5193H108.105V49.6717Z" fill="#0E1C2C"/>
<path d="M120.87 49.6717V44.2693C120.87 43.608 120.729 43.1104 120.449 42.7798C120.168 42.4492 119.731 42.2823 119.138 42.2823C118.36 42.2823 117.786 42.507 117.416 42.9564C117.046 43.4058 116.858 44.0991 116.858 45.0332V49.6685H115.608V44.266C115.608 43.6048 115.468 43.1072 115.187 42.7766C114.907 42.446 114.467 42.2791 113.87 42.2791C113.089 42.2791 112.515 42.5166 112.152 42.9885C111.788 43.4603 111.606 44.2339 111.606 45.3093V49.6653H110.357V41.3642H111.374L111.578 42.5005H111.638C111.874 42.0961 112.206 41.7815 112.636 41.5536C113.067 41.3257 113.545 41.2133 114.078 41.2133C115.366 41.2133 116.211 41.682 116.606 42.6225H116.667C116.912 42.1892 117.27 41.8457 117.735 41.5921C118.201 41.3385 118.733 41.2133 119.329 41.2133C120.264 41.2133 120.962 41.4541 121.424 41.9356C121.89 42.4171 122.12 43.1907 122.12 44.25V49.6653H120.87V49.6717Z" fill="#0E1C2C"/>
<path d="M128.529 49.8258C127.993 49.8258 127.502 49.7263 127.059 49.5273C126.616 49.3282 126.242 49.0201 125.943 48.606H125.853C125.914 49.0907 125.943 49.5497 125.943 49.9831V53.3985H124.693V41.3706H125.71L125.882 42.507H125.943C126.265 42.0511 126.638 41.7237 127.065 41.5215C127.492 41.3193 127.98 41.2197 128.532 41.2197C129.626 41.2197 130.471 41.5953 131.064 42.3497C131.657 43.1008 131.957 44.1569 131.957 45.5147C131.957 46.8726 131.654 47.9383 131.051 48.6927C130.445 49.447 129.606 49.8258 128.535 49.8258H128.529ZM128.347 42.2887C127.505 42.2887 126.896 42.523 126.52 42.9917C126.144 43.4603 125.949 44.2083 125.94 45.2355V45.5147C125.94 46.68 126.131 47.5146 126.52 48.0186C126.906 48.5225 127.524 48.7729 128.379 48.7729C129.09 48.7729 129.648 48.4808 130.053 47.903C130.458 47.322 130.659 46.5227 130.659 45.5019C130.659 44.4811 130.458 43.6722 130.053 43.1201C129.648 42.568 129.08 42.2919 128.35 42.2919L128.347 42.2887Z" fill="#0E1C2C"/>
<path d="M137.897 41.2197C138.264 41.2197 138.592 41.2486 138.882 41.3096L138.71 42.4749C138.369 42.3978 138.069 42.3625 137.808 42.3625C137.141 42.3625 136.571 42.6354 136.095 43.1811C135.62 43.7268 135.384 44.4073 135.384 45.2194V49.6749H134.134V41.3738H135.164L135.308 42.9114H135.368C135.675 42.3721 136.044 41.9548 136.475 41.6627C136.905 41.3706 137.38 41.223 137.897 41.223V41.2197Z" fill="#0E1C2C"/>
<path d="M143.908 49.8258C142.69 49.8258 141.727 49.4534 141.022 48.7055C140.317 47.9576 139.963 46.9207 139.963 45.5918C139.963 44.2628 140.292 43.1907 140.945 42.401C141.599 41.6146 142.479 41.2197 143.582 41.2197C144.616 41.2197 145.435 41.5632 146.035 42.247C146.637 42.9307 146.937 43.8327 146.937 44.9562V45.7523H141.255C141.28 46.7281 141.526 47.4664 141.988 47.9704C142.45 48.4744 143.104 48.728 143.949 48.728C144.836 48.728 145.716 48.5418 146.583 48.1662V49.2865C146.143 49.4791 145.725 49.6171 145.33 49.7006C144.934 49.7841 144.459 49.8258 143.904 49.8258H143.908ZM143.57 42.2726C142.906 42.2726 142.38 42.4909 141.985 42.9243C141.59 43.3576 141.36 43.9579 141.29 44.7283H145.601C145.601 43.9354 145.425 43.3287 145.075 42.905C144.724 42.4845 144.223 42.2726 143.57 42.2726Z" fill="#0E1C2C"/>
<path d="M154.392 47.4086C154.392 48.1823 154.105 48.7761 153.534 49.1966C152.963 49.6171 152.16 49.8258 151.127 49.8258C150.033 49.8258 149.182 49.6524 148.569 49.3026V48.1373C148.965 48.3396 149.392 48.4968 149.845 48.6156C150.298 48.7312 150.738 48.789 151.159 48.789C151.809 48.789 152.313 48.683 152.664 48.4744C153.014 48.2657 153.19 47.9447 153.19 47.5146C153.19 47.1904 153.05 46.9143 152.772 46.6864C152.495 46.4553 151.949 46.1856 151.143 45.8711C150.374 45.5822 149.829 45.3318 149.507 45.1167C149.185 44.9016 148.943 44.6577 148.783 44.3848C148.624 44.112 148.547 43.7878 148.547 43.409C148.547 42.7317 148.821 42.1988 149.367 41.8072C149.912 41.4156 150.664 41.2197 151.618 41.2197C152.504 41.2197 153.375 41.4027 154.223 41.7654L153.78 42.7894C152.951 42.446 152.201 42.2758 151.529 42.2758C150.935 42.2758 150.489 42.3689 150.189 42.5551C149.89 42.7413 149.737 42.9981 149.737 43.3287C149.737 43.5502 149.794 43.7396 149.906 43.8969C150.017 44.0542 150.199 44.2018 150.451 44.3431C150.703 44.4843 151.184 44.6898 151.895 44.9562C152.874 45.3157 153.534 45.6752 153.879 46.038C154.223 46.4007 154.395 46.8597 154.395 47.4086H154.392Z" fill="#0E1C2C"/>
<path d="M161.493 49.6717L161.244 48.4904H161.184C160.773 49.0104 160.361 49.3635 159.953 49.5465C159.545 49.7295 159.035 49.8226 158.422 49.8226C157.606 49.8226 156.965 49.6107 156.5 49.187C156.034 48.7633 155.805 48.1598 155.805 47.3765C155.805 45.7009 157.137 44.8214 159.8 44.7411L161.2 44.6962V44.1826C161.2 43.531 161.059 43.0495 160.782 42.7381C160.505 42.4267 160.058 42.2726 159.446 42.2726C158.757 42.2726 157.982 42.4845 157.112 42.9082L156.729 41.9452C157.134 41.7237 157.581 41.5504 158.065 41.422C158.55 41.2968 159.035 41.2326 159.523 41.2326C160.505 41.2326 161.235 41.4509 161.71 41.8906C162.185 42.3304 162.421 43.0334 162.421 44.0028V49.6685H161.496L161.493 49.6717ZM158.671 48.7857C159.449 48.7857 160.058 48.5707 160.505 48.1405C160.948 47.7104 161.171 47.1101 161.171 46.3365V45.5854L159.921 45.6399C158.926 45.6752 158.212 45.8293 157.772 46.1054C157.332 46.3814 157.115 46.8084 157.115 47.3894C157.115 47.8452 157.252 48.1887 157.526 48.4262C157.801 48.6638 158.183 48.7825 158.674 48.7825L158.671 48.7857Z" fill="#0E1C2C"/>
<path d="M168.754 41.2197C169.12 41.2197 169.449 41.2486 169.739 41.3096L169.567 42.4749C169.226 42.3978 168.926 42.3625 168.664 42.3625C167.998 42.3625 167.427 42.6354 166.952 43.1811C166.477 43.7268 166.241 44.4073 166.241 45.2194V49.6749H164.991V41.3738H166.021L166.165 42.9114H166.225C166.531 42.3721 166.901 41.9548 167.332 41.6627C167.762 41.3706 168.237 41.223 168.754 41.223V41.2197Z" fill="#0E1C2C"/>
<path d="M171.177 39.1204C171.177 38.8315 171.247 38.6229 171.388 38.488C171.528 38.3532 171.703 38.289 171.914 38.289C172.124 38.289 172.287 38.3564 172.433 38.4944C172.58 38.6293 172.65 38.8411 172.65 39.1236C172.65 39.4061 172.577 39.618 172.433 39.756C172.287 39.894 172.115 39.9646 171.914 39.9646C171.703 39.9646 171.528 39.894 171.388 39.756C171.247 39.618 171.177 39.4061 171.177 39.1236V39.1204ZM172.532 49.6717H171.282V41.3706H172.532V49.6717Z" fill="#0E1C2C"/>
<path d="M180.252 49.6717L180.003 48.4904H179.943C179.531 49.0104 179.12 49.3635 178.712 49.5465C178.304 49.7295 177.794 49.8226 177.181 49.8226C176.365 49.8226 175.724 49.6107 175.259 49.187C174.793 48.7633 174.563 48.1598 174.563 47.3765C174.563 45.7009 175.896 44.8214 178.559 44.7411L179.959 44.6962V44.1826C179.959 43.531 179.818 43.0495 179.541 42.7381C179.264 42.4267 178.817 42.2726 178.205 42.2726C177.516 42.2726 176.741 42.4845 175.871 42.9082L175.488 41.9452C175.893 41.7237 176.34 41.5504 176.824 41.422C177.309 41.2968 177.794 41.2326 178.281 41.2326C179.264 41.2326 179.994 41.4509 180.469 41.8906C180.944 42.3304 181.18 43.0334 181.18 44.0028V49.6685H180.255L180.252 49.6717ZM177.43 48.7857C178.208 48.7857 178.817 48.5707 179.264 48.1405C179.707 47.7104 179.93 47.1101 179.93 46.3365V45.5854L178.68 45.6399C177.685 45.6752 176.971 45.8293 176.531 46.1054C176.091 46.3814 175.874 46.8084 175.874 47.3894C175.874 47.8452 176.011 48.1887 176.285 48.4262C176.56 48.6638 176.942 48.7825 177.433 48.7825L177.43 48.7857Z" fill="#0E1C2C"/>
<path d="M185 49.6717H183.75V37.8845H185V49.6717Z" fill="#0E1C2C"/>
</svg>
