<svg width="100" height="84" viewBox="0 0 100 84" fill="none" xmlns="http://www.w3.org/2000/svg">
<path d="M36.15 31.0937C34.26 31.3237 32.01 31.5137 29.63 31.5137C27.99 31.5137 26.28 31.4237 24.6 31.2037V62.7337C24.6 70.6537 23.8 75.6337 22.19 77.6537C20.59 79.6837 18.38 80.7037 15.59 80.7037C13.98 80.7037 12.47 80.3137 11.09 79.5136C9.70998 78.7136 9.02998 77.8036 9.02998 76.7837C9.02998 76.0637 9.45998 75.2037 10.34 74.2237C10.86 73.2537 11.12 72.1837 11.12 71.0237C11.12 69.4237 10.64 68.0836 9.65998 67.0136C8.67998 65.9537 7.44998 65.4137 5.94998 65.4137C4.44998 65.4137 3.10998 66.0036 2.00998 67.2337C0.909976 68.4436 0.349976 69.9637 0.349976 71.7837C0.349976 74.7537 1.82998 77.4537 4.78998 79.8637C7.74998 82.2637 11.26 83.4637 15.31 83.4637C19.36 83.4637 23.42 82.0937 27.09 79.3336C30.76 76.5637 33.19 73.4036 34.37 69.8437C35.55 66.2537 36.17 66.7537 36.15 54.9437V31.0837V31.0937Z" fill="#D9D9D6"/>
<path d="M79.5 36.8637V36.5937C91.4 33.8036 97.37 27.9137 97.37 18.9537C97.37 16.5837 96.85 14.0637 95.84 11.4137C94.81 8.77365 93.13 6.54365 90.79 4.74365C88.46 2.93365 86.02 1.82365 83.49 1.39365C80.96 0.973652 77.84 0.743652 74.13 0.743652L40.39 0.783652H13.41V3.57365H24.6V15.4737C25.58 15.4637 26.57 15.4237 27.6 15.3637C28.44 15.3137 29.31 15.2437 30.23 15.1637C30.75 15.1237 31.3 15.0737 31.87 15.0337C33.86 14.8737 35.22 14.8637 36.15 14.9237V3.57365H50.48V14.9237C51.4 14.8737 52.77 14.8737 54.77 15.0337C55.34 15.0737 55.89 15.1237 56.41 15.1637C57.33 15.2437 58.2 15.3137 59.04 15.3637C60.08 15.4237 61.08 15.4637 62.06 15.4737V3.63365H72.03C75.19 3.63365 77.61 3.86365 79.31 4.32365C81.02 4.80365 82.42 6.09365 83.53 8.19365C84.63 10.2937 85.18 13.6537 85.18 18.2737C85.18 24.1737 84.35 28.5037 82.65 31.2337C80.97 33.9837 77.08 35.3537 71.02 35.3537H62.06V31.2037C60.37 31.4237 58.66 31.5237 57.01 31.5237C54.63 31.5237 52.37 31.3337 50.48 31.1037V73.4637H40.39V76.3336H73.7C77.86 76.3336 81.31 76.0836 84.05 75.5637C86.79 75.0637 89.47 73.7737 92.09 71.7137C94.73 69.6337 96.64 67.1936 97.84 64.3437C99.04 61.5136 99.65 58.8237 99.65 56.2637C99.65 45.8537 92.92 39.3937 79.49 36.8737L79.5 36.8637ZM84.55 67.7237C83.12 70.3437 81.39 71.9336 79.36 72.5536C77.33 73.1536 74.62 73.4537 71.22 73.4537H62.06V38.2337H70.92C77.12 38.2337 81.31 39.6037 83.45 42.3337C85.61 45.0837 86.69 49.4337 86.69 55.4137C86.69 61.0136 85.98 65.1037 84.55 67.7237Z" fill="#D9D9D6"/>
<path d="M40.35 12.1237C40.35 10.4337 41.71 9.05365 43.41 9.05365C45.11 9.05365 46.48 10.4337 46.48 12.1237C46.48 13.8137 45.1 15.1937 43.41 15.1937C41.72 15.1937 40.35 13.8137 40.35 12.1237ZM44.49 18.1037H42.18L42.4 38.7737C40.9 38.0637 39.01 37.1237 38.13 36.7237C37.95 36.6437 37.76 36.5437 37.57 36.4337V38.8737C38.23 39.1937 39.13 39.6137 40.03 40.0137C40.17 39.9337 40.34 39.8337 40.5 39.7437C41.13 39.3937 41.81 39.1137 42.5 38.8237C43.07 38.5637 43.68 38.3137 44.27 38.0337L44.49 18.1137V18.1037ZM37.58 34.0337L38.14 33.9537C38.45 33.9137 38.75 33.8737 39.1 33.8137H39.18C39.53 33.7537 39.75 33.4237 39.69 33.0837C39.67 32.9637 39.61 32.8437 39.51 32.7537C39.22 32.4437 38.86 32.2237 38.47 32.0637C38.18 31.9537 37.88 31.8737 37.58 31.8337V32.3437C37.58 32.3437 37.6 32.3437 37.61 32.3437C37.6 32.3537 37.59 32.3637 37.58 32.3837V34.0437V34.0337ZM45.36 24.9237C45.43 25.2437 45.51 25.5837 45.58 25.9437C45.88 27.2037 45.8 28.0937 45.43 28.7537C46.1 28.8637 46.73 29.0737 47 29.0937C47.56 29.2037 48.08 29.2737 48.6 29.3337C47.82 28.2037 47.37 27.1037 47.07 26.1237C47.18 25.8337 47.37 25.5237 47.63 25.1737C48.38 27.6437 48.71 29.4337 52.29 29.7737C51.84 29.4537 51.43 29.0937 51.02 28.7237C49.45 27.2737 48.63 25.8037 48.22 24.5237C48.41 24.3437 48.63 24.1537 48.89 23.9937C49.34 25.2237 50.23 26.7037 51.91 28.1937C54.22 30.2137 54.56 30.1137 58.21 30.0337C57.73 29.7937 57.24 29.5637 56.76 29.3237C53.22 27.5337 51.28 25.2237 50.24 23.2537C50.46 23.1437 50.72 23.0437 50.99 22.9637C51.03 22.9637 51.06 22.9337 51.1 22.9337C52.18 24.7737 54.12 26.9537 57.47 28.6637C60.49 30.1837 60.82 30.1337 64.59 29.2637C63.92 29.1337 63.21 28.9437 62.54 28.7637C57.02 27.2637 54.04 24.5837 52.48 22.4537C52.82 22.3737 53.11 22.2737 53.45 22.1637C57.77 27.5237 64.33 30.4137 72.01 26.5237H71.9C71.45 26.4937 71.04 26.4737 70.6 26.4437C62.88 25.8637 58.41 23.5237 55.91 21.5337C56.28 21.4837 56.62 21.4037 57.03 21.3537C62.21 24.9837 71.9 28.0837 77.31 22.9537C76.27 23.0337 75.19 23.0637 74.03 23.0337C73.1 23.0337 72.17 22.9837 71.31 22.9237C67.51 22.6337 63.15 21.4537 60.76 20.6937C61.47 20.5337 61.62 20.5837 62.47 20.4337C68.77 22.4037 77.83 24.3237 80.55 18.5637C79.99 18.6737 79.39 18.7737 78.8 18.8537C75.37 19.3537 70.49 19.2237 67.54 19.0637C68.77 18.6737 71.71 18.5137 73.62 18.4837H73.84C75.37 18.4037 76.97 18.2737 78.57 18.0637C79.39 17.9337 80.17 17.7737 80.96 17.5937C81.33 16.5937 82.34 15.0437 82.49 14.1737C79.32 15.1237 75.41 16.4337 67.54 16.7737C64.78 16.9037 60.87 17.0137 55.46 16.4837C44.2 15.3537 48.27 19.0537 47.63 21.3937C47.03 23.5237 46.18 24.3637 45.36 24.8837V24.9237ZM39.56 26.1337C39.26 27.1037 38.78 28.2137 38 29.3437C38.52 29.2937 39.07 29.2137 39.59 29.1037C39.89 29.0737 40.52 28.8637 41.18 28.7637C40.81 28.1037 40.74 27.2137 41.03 25.9537C41.1 25.5837 41.18 25.2437 41.22 24.9337C40.44 24.4037 39.59 23.5637 39 21.4437C38.37 19.1037 42.41 15.4037 31.22 16.5337C25.85 17.0637 21.96 16.9537 19.22 16.8237C11.4 16.4837 7.50998 15.1637 4.35998 14.2237C4.46998 15.0937 5.50998 16.6437 5.87998 17.6437C6.65998 17.8237 7.43998 17.9837 8.24998 18.1137C9.83998 18.3237 11.4 18.4537 12.96 18.5337H13.15C15.08 18.5637 18 18.7137 19.23 19.1137C16.3 19.2737 11.45 19.4037 8.03998 18.9037C7.44998 18.8237 6.84998 18.7237 6.29998 18.6137C8.99998 24.3637 18.01 22.4537 24.23 20.4837C25.08 20.6437 25.23 20.5937 25.97 20.7437C23.6 21.5037 19.23 22.6837 15.48 22.9737C14.59 23.0237 13.7 23.0837 12.78 23.0837C11.63 23.1137 10.56 23.0837 9.51998 23.0037C14.89 28.1237 24.49 25.0237 29.67 21.4037C30.04 21.4537 30.41 21.5337 30.78 21.5837C28.3 23.5837 23.81 25.9237 16.15 26.4937C15.74 26.5237 15.33 26.5437 14.89 26.5737H14.78C22.38 30.4637 28.93 27.5737 33.19 22.2137C33.52 22.3237 33.86 22.4237 34.15 22.5037C32.59 24.6337 29.67 27.3137 24.18 28.8137C23.48 28.9937 22.81 29.1837 22.14 29.3137C25.84 30.1837 26.18 30.2337 29.22 28.7137C32.55 27.0037 34.44 24.8237 35.52 22.9837C35.56 22.9837 35.59 23.0137 35.63 23.0137C35.93 23.0937 36.15 23.1937 36.41 23.3037C35.37 25.2737 33.45 27.5837 29.89 29.3737C29.45 29.6137 28.96 29.8437 28.48 30.0837C32.11 30.1637 32.44 30.2637 34.7 28.2437C36.4 26.7437 37.29 25.2737 37.74 24.0437C37.96 24.2037 38.18 24.3837 38.41 24.5737C38 25.8637 37.19 27.3337 35.63 28.7737C35.22 29.1437 34.78 29.5137 34.37 29.8237C37.89 29.4837 38.26 27.6937 39 25.2237C39.26 25.5637 39.44 25.8837 39.56 26.1737V26.1337ZM49.06 31.8237C48.76 31.8737 48.47 31.9537 48.2 32.0537C47.81 32.2137 47.44 32.4437 47.14 32.7437C47.06 32.8237 47 32.9437 46.98 33.0737C46.92 33.4237 47.14 33.7437 47.49 33.8037H47.55C47.9 33.8637 48.22 33.9037 48.51 33.9437L49.06 34.0237V31.8137V31.8237ZM43.16 70.8736C43.22 70.9537 43.28 71.0136 43.32 71.0937C43.38 71.0136 43.44 70.9537 43.5 70.8736L43.66 63.2637C43.48 63.4237 43.23 63.6137 42.99 63.8337L43.15 70.8736H43.16ZM42.85 71.9937C42.85 71.9937 42.95 72.0737 42.99 72.0937C42.95 72.0536 42.91 72.0136 42.87 71.9537C42.63 71.6837 42.4 71.4037 42.18 71.1137C41.77 70.5837 41.4 70.0136 41.14 69.4237C40.87 68.8537 40.71 68.2236 40.65 67.5836C40.63 67.2737 40.61 66.9337 40.65 66.6437C40.67 66.3337 40.73 66.0337 40.81 65.7437C40.99 65.1537 41.32 64.6237 41.73 64.1537C42.06 63.7637 42.4 63.4237 42.79 63.0937C42.95 62.9537 43.14 62.8036 43.32 62.6637C43.69 62.3736 44.05 62.0937 44.44 61.8237C44.54 61.7437 44.66 61.6437 44.79 61.5537C44.85 61.5137 44.93 61.4537 44.99 61.3937C45.48 61.0437 45.99 60.6637 46.46 60.2537C47.01 59.7636 47.56 59.2337 48.01 58.6037C48.46 57.9537 48.83 57.1937 48.97 56.3737C49.01 56.1737 49.03 55.9637 49.05 55.7637C49.05 55.7637 49.05 55.7437 49.05 55.7337V54.9137C49.02 54.5737 48.94 54.2237 48.82 53.8637C48.55 53.0437 48.02 52.3337 47.45 51.7837C47 51.3537 46.53 50.9837 46.04 50.6637C46.02 50.6637 46.02 50.6837 46 50.6837C45.37 51.0737 44.71 51.3937 44.04 51.7437C44.24 51.8437 44.45 51.9437 44.63 52.0737C45.2 52.4037 45.73 52.7437 46.18 53.1537C46.61 53.5437 46.96 53.9937 47.14 54.4837C47.22 54.7237 47.28 54.9737 47.3 55.2437C47.3 55.3837 47.32 55.5337 47.3 55.6737C47.3 55.8137 47.3 55.9637 47.26 56.0837C47.2 56.6537 46.97 57.1837 46.65 57.6937C46 58.6937 44.96 59.5737 43.87 60.4337L43.85 60.4537C43.67 60.5937 43.48 60.7437 43.3 60.9037C42.95 61.1937 42.61 61.4737 42.26 61.7837L42.2 61.8437C42.04 61.9837 41.85 62.1537 41.69 62.3137C41.34 62.6437 41.04 62.9837 40.73 63.3737C40.28 63.9837 39.89 64.6837 39.71 65.4337C39.06 67.8837 40.87 70.6437 42.83 72.0037L42.85 71.9937ZM39.12 48.7637C39.59 49.1937 40.1 49.5437 40.59 49.8437C40.59 49.8437 40.6033 49.837 40.63 49.8237C41.28 49.4137 41.96 49.0437 42.63 48.6837C42.45 48.5637 42.24 48.4637 42.06 48.3337C41.51 47.9837 41 47.6237 40.57 47.2137C40.16 46.8037 39.86 46.3737 39.71 45.9237C39.55 45.4737 39.53 44.9237 39.65 44.5137C39.69 44.3137 39.79 44.1037 39.92 43.9037C40.06 43.7237 40.23 43.5137 40.43 43.3137C40.82 42.9437 41.35 42.6037 41.9 42.2737C42.1 42.1537 42.33 42.0337 42.55 41.9037C42.82 41.7637 43.08 41.6337 43.33 41.5137C43.45 41.4537 43.55 41.4137 43.66 41.3537C44.13 41.1337 44.97 40.7637 45.86 40.3537C46.1 40.2537 46.37 40.1337 46.64 40.0037C47.52 39.6036 48.41 39.1937 49.07 38.8737V36.4437C48.88 36.5537 48.7 36.6437 48.54 36.7237C47.64 37.1337 45.68 38.1137 44.17 38.8237C43.86 38.9637 43.6 39.0937 43.33 39.2137C43.15 39.2937 42.96 39.3736 42.8 39.4337C42.15 39.7037 41.49 40.0037 40.82 40.3537C40.58 40.4937 40.33 40.6237 40.09 40.7837C39.68 41.0537 39.29 41.3337 38.91 41.6837C38.6 41.9737 38.3 42.2937 38.05 42.6837C37.87 42.9737 37.71 43.2836 37.59 43.6137V46.4537C37.61 46.5237 37.64 46.5937 37.66 46.6637C37.97 47.5237 38.54 48.2137 39.13 48.7637H39.12ZM40.18 60.2637C40.67 60.6737 41.16 61.0637 41.65 61.4037C41.71 61.3637 41.77 61.3237 41.81 61.2637C42.14 60.9737 42.46 60.7137 42.79 60.4437C42.77 60.4437 42.77 60.4237 42.75 60.4237C41.69 59.5637 40.65 58.6837 39.99 57.6837C39.66 57.1737 39.44 56.6437 39.36 56.0737C39.34 55.9537 39.34 55.8036 39.32 55.6637C39.32 55.5237 39.32 55.3737 39.34 55.2337C39.36 54.9637 39.42 54.7237 39.5 54.4737C39.68 53.9837 40.03 53.5337 40.46 53.1437C40.91 52.7337 41.44 52.3837 41.99 52.0637C42.19 51.9437 42.4 51.8437 42.58 51.7337C42.82 51.5937 43.07 51.4636 43.31 51.3437C43.98 50.9737 44.7 50.6337 45.39 50.2437C45.47 50.1837 45.57 50.1437 45.66 50.0837C45.8 50.0037 45.93 49.9436 46.07 49.8437C46.56 49.5336 47.07 49.1937 47.54 48.7637C48.13 48.2137 48.68 47.5136 49.01 46.6637C49.03 46.6236 49.04 46.5737 49.05 46.5337V43.5537C48.94 43.2437 48.79 42.9537 48.62 42.6837C48.35 42.2937 48.07 41.9737 47.76 41.6837C47.37 41.3337 46.96 41.0537 46.56 40.7837C45.74 41.1537 44.91 41.5137 44.09 41.9037H44.1C43.69 42.1337 43.08 42.4737 42.5 42.8437L42.64 48.6637C43.11 48.3736 43.56 48.0737 44.03 47.7637L44.17 41.9537C44.37 42.0637 44.56 42.1737 44.76 42.2737C45.31 42.6037 45.82 42.9437 46.23 43.3137C46.43 43.5137 46.6 43.7237 46.72 43.9037C46.86 44.1037 46.94 44.3137 47.01 44.5137C47.13 44.9237 47.09 45.4737 46.95 45.9237C46.81 46.3737 46.5 46.8037 46.07 47.2137C45.66 47.6237 45.15 47.9937 44.6 48.3337C44.4 48.4537 44.21 48.5536 44.01 48.6837C43.79 48.8036 43.56 48.9537 43.32 49.0737C42.65 49.4637 41.95 49.8337 41.26 50.2537C41.16 50.2937 41.08 50.3536 40.99 50.4137C40.87 50.4937 40.72 50.5737 40.6 50.6537C40.11 50.9837 39.62 51.3437 39.17 51.7737C38.62 52.3237 38.09 53.0437 37.82 53.8537C37.68 54.2837 37.6 54.7137 37.58 55.1237C37.58 55.3437 37.58 55.5536 37.6 55.7537C37.62 55.9537 37.64 56.1637 37.68 56.3637C37.82 57.1837 38.17 57.9337 38.64 58.5937C39.09 59.2237 39.62 59.7537 40.17 60.2437L40.18 60.2637ZM42.91 60.3437C43.09 60.1637 43.44 59.7937 43.46 59.8137L43.77 59.5037L43.93 51.8437C43.58 52.0237 43.13 52.2937 42.73 52.5137L42.91 60.3337V60.3437ZM39.92 16.7137C39.92 16.9737 40.14 17.1937 40.4 17.1937H46.43C46.69 17.1937 46.91 16.9737 46.91 16.7137C46.91 16.4337 46.69 16.2337 46.43 16.2337H40.4C40.14 16.2337 39.92 16.4437 39.92 16.7137ZM46.94 65.4237C46.76 64.6637 46.37 63.9737 45.92 63.3637C45.61 62.9737 45.29 62.6337 44.96 62.3037C44.59 62.5737 44.23 62.8337 43.88 63.1037C44.27 63.4337 44.61 63.7737 44.94 64.1637C45.33 64.6337 45.65 65.1637 45.84 65.7537C45.94 66.0437 46 66.3437 46.02 66.6537C46.04 66.9437 46.04 67.2837 46.02 67.5937C45.96 68.2236 45.8 68.8637 45.53 69.4337C45.26 70.0237 44.9 70.5937 44.47 71.1236C44.27 71.4137 44.02 71.6937 43.78 71.9637C43.74 72.0237 43.7 72.0637 43.66 72.1037C43.72 72.0837 43.78 72.0437 43.82 72.0037C45.78 70.6337 47.58 67.8837 46.94 65.4337V65.4237Z" fill="#D9D9D6"/>
</svg>
